<?xml version="1.0" encoding="UTF-8" standalone="no"?>
<!DOCTYPE svg PUBLIC "-//W3C//DTD SVG 1.1//EN"
 "http://www.w3.org/Graphics/SVG/1.1/DTD/svg11.dtd">
<!-- Generated by graphviz version 2.49.3 (20211027.1534)
 -->
<!-- Title: workflow Pages: 1 -->
<svg width="268pt" height="409pt"
 viewBox="0.00 0.00 276.00 421.00" xmlns="http://www.w3.org/2000/svg" xmlns:xlink="http://www.w3.org/1999/xlink">
<g id="graph0" class="graph" transform="scale(0.97 0.97) rotate(0) translate(4 417)">
<title>workflow</title>
<g id="clust2" class="cluster">
<title>cluster_outputs</title>
<polygon fill="transparent" stroke="black" stroke-dasharray="5,2" points="8,-8 8,-63 248,-63 248,-8 8,-8"/>
<text text-anchor="middle" x="53" y="-15" font-family="Times,serif" font-size="10.00">Workflow Outputs</text>
</g>
<g id="clust1" class="cluster">
<title>cluster_inputs</title>
<polygon fill="transparent" stroke="black" stroke-dasharray="5,2" points="170,-350 170,-405 258,-405 258,-350 170,-350"/>
<text text-anchor="middle" x="211.5" y="-393" font-family="Times,serif" font-size="10.00">Workflow Inputs</text>
</g>
<!-- domain_size -->
<g id="node1" class="node">
<title>domain_size</title>
<polygon fill="#94ddf4" stroke="black" points="178.5,-358.5 178.5,-377.5 249.5,-377.5 249.5,-358.5 178.5,-358.5"/>
<text text-anchor="middle" x="214" y="-365.5" font-family="Helvetica,sans-Serif" font-size="10.00">domain_size</text>
</g>
<!-- make_mesh -->
<g id="node7" class="node">
<title>make_mesh</title>
<polygon fill="lightgoldenrodyellow" stroke="black" points="134,-305.5 134,-324.5 204,-324.5 204,-305.5 134,-305.5"/>
<text text-anchor="middle" x="169" y="-312.5" font-family="Helvetica,sans-Serif" font-size="10.00">make_mesh</text>
</g>
<!-- domain_size&#45;&gt;make_mesh -->
<g id="edge3" class="edge">
<title>domain_size&#45;&gt;make_mesh</title>
<path fill="none" stroke="black" d="M193.54,-358.45C186.32,-354.47 178.82,-349.02 174,-342 171.96,-339.03 170.7,-335.44 169.94,-331.89"/>
<polygon fill="black" stroke="black" points="172.35,-331.47 168.97,-324.87 167.5,-332.14 172.35,-331.47"/>
<text text-anchor="middle" x="196.5" y="-335.6" font-family="Helvetica,sans-Serif" font-size="8.00">domain_size</text>
</g>
<!-- prepare_paper_macros -->
<g id="node10" class="node">
<title>prepare_paper_macros</title>
<polygon fill="lightgoldenrodyellow" stroke="black" points="138,-125.5 138,-144.5 254,-144.5 254,-125.5 138,-125.5"/>
<text text-anchor="middle" x="196" y="-132.5" font-family="Helvetica,sans-Serif" font-size="10.00">prepare_paper_macros</text>
</g>
<!-- domain_size&#45;&gt;prepare_paper_macros -->
<g id="edge10" class="edge">
<title>domain_size&#45;&gt;prepare_paper_macros</title>
<path fill="none" stroke="black" d="M216.46,-358.42C219.12,-348.35 223,-331.1 223,-316 223,-316 223,-316 223,-179 223,-168.18 216.8,-157.85 210.34,-150.03"/>
<polygon fill="black" stroke="black" points="211.94,-148.15 205.44,-144.57 208.29,-151.42 211.94,-148.15"/>
<text text-anchor="middle" x="245.5" y="-245.6" font-family="Helvetica,sans-Serif" font-size="8.00">domain_size</text>
</g>
<!-- macros -->
<g id="node2" class="node">
<title>macros</title>
<polygon fill="#94ddf4" stroke="black" points="190.5,-35.5 190.5,-54.5 239.5,-54.5 239.5,-35.5 190.5,-35.5"/>
<text text-anchor="middle" x="215" y="-42.5" font-family="Helvetica,sans-Serif" font-size="10.00">macros</text>
</g>
<!-- paperpdf -->
<g id="node3" class="node">
<title>paperpdf</title>
<polygon fill="#94ddf4" stroke="black" points="132,-35.5 132,-54.5 186,-54.5 186,-35.5 132,-35.5"/>
<text text-anchor="middle" x="159" y="-42.5" font-family="Helvetica,sans-Serif" font-size="10.00">paperpdf</text>
</g>
<!-- resultvtu -->
<g id="node4" class="node">
<title>resultvtu</title>
<polygon fill="#94ddf4" stroke="black" points="16,-35.5 16,-54.5 70,-54.5 70,-35.5 16,-35.5"/>
<text text-anchor="middle" x="43" y="-42.5" font-family="Helvetica,sans-Serif" font-size="10.00">resultvtu</text>
</g>
<!-- pol_data -->
<g id="node5" class="node">
<title>pol_data</title>
<polygon fill="#94ddf4" stroke="black" points="74.5,-35.5 74.5,-54.5 127.5,-54.5 127.5,-35.5 74.5,-35.5"/>
<text text-anchor="middle" x="101" y="-42.5" font-family="Helvetica,sans-Serif" font-size="10.00">pol_data</text>
</g>
<!-- plot_over_line -->
<g id="node6" class="node">
<title>plot_over_line</title>
<polygon fill="lightgoldenrodyellow" stroke="black" points="73.5,-170.5 73.5,-189.5 150.5,-189.5 150.5,-170.5 73.5,-170.5"/>
<text text-anchor="middle" x="112" y="-177.5" font-family="Helvetica,sans-Serif" font-size="10.00">plot_over_line</text>
</g>
<!-- plot_over_line&#45;&gt;pol_data -->
<g id="edge15" class="edge">
<title>plot_over_line&#45;&gt;pol_data</title>
<path fill="none" stroke="black" d="M109.68,-170.41C109.04,-167.73 108.4,-164.76 108,-162 102.79,-126.47 101.44,-84.26 101.1,-61.84"/>
<polygon fill="black" stroke="black" points="103.55,-61.75 101.02,-54.78 98.65,-61.81 103.55,-61.75"/>
</g>
<!-- compile_paper -->
<g id="node8" class="node">
<title>compile_paper</title>
<polygon fill="lightgoldenrodyellow" stroke="black" points="119,-80.5 119,-99.5 199,-99.5 199,-80.5 119,-80.5"/>
<text text-anchor="middle" x="159" y="-87.5" font-family="Helvetica,sans-Serif" font-size="10.00">compile_paper</text>
</g>
<!-- plot_over_line&#45;&gt;compile_paper -->
<g id="edge4" class="edge">
<title>plot_over_line&#45;&gt;compile_paper</title>
<path fill="none" stroke="black" d="M110.16,-170.38C108.24,-159.22 106.46,-139.48 114,-125 118.62,-116.14 126.7,-108.95 134.75,-103.49"/>
<polygon fill="black" stroke="black" points="136.22,-105.46 140.84,-99.66 133.61,-101.31 136.22,-105.46"/>
<text text-anchor="middle" x="125" y="-133.1" font-family="Helvetica,sans-Serif" font-size="8.00">csvfile</text>
</g>
<!-- plot_over_line&#45;&gt;prepare_paper_macros -->
<g id="edge8" class="edge">
<title>plot_over_line&#45;&gt;prepare_paper_macros</title>
<path fill="none" stroke="black" d="M115.42,-170.02C118.03,-164.33 122.18,-157.26 128,-153 130.8,-150.95 133.82,-149.15 136.97,-147.56"/>
<polygon fill="black" stroke="black" points="138.22,-149.69 143.61,-144.6 136.22,-145.21 138.22,-149.69"/>
<text text-anchor="middle" x="152" y="-155.6" font-family="Helvetica,sans-Serif" font-size="8.00">plot_data_file</text>
</g>
<!-- convert_mesh -->
<g id="node11" class="node">
<title>convert_mesh</title>
<polygon fill="lightgoldenrodyellow" stroke="black" points="128,-260.5 128,-279.5 206,-279.5 206,-260.5 128,-260.5"/>
<text text-anchor="middle" x="167" y="-267.5" font-family="Helvetica,sans-Serif" font-size="10.00">convert_mesh</text>
</g>
<!-- make_mesh&#45;&gt;convert_mesh -->
<g id="edge11" class="edge">
<title>make_mesh&#45;&gt;convert_mesh</title>
<path fill="none" stroke="black" d="M168.6,-305.3C168.35,-300.05 168.03,-293.21 167.74,-287.02"/>
<polygon fill="black" stroke="black" points="170.18,-286.57 167.4,-279.69 165.28,-286.8 170.18,-286.57"/>
<text text-anchor="middle" x="186.5" y="-290.6" font-family="Helvetica,sans-Serif" font-size="8.00">inputmesh</text>
</g>
<!-- compile_paper&#45;&gt;paperpdf -->
<g id="edge13" class="edge">
<title>compile_paper&#45;&gt;paperpdf</title>
<path fill="none" stroke="black" d="M159,-80.3C159,-75.05 159,-68.21 159,-62.02"/>
<polygon fill="black" stroke="black" points="161.45,-61.69 159,-54.69 156.55,-61.69 161.45,-61.69"/>
</g>
<!-- run_simulation -->
<g id="node9" class="node">
<title>run_simulation</title>
<polygon fill="lightgoldenrodyellow" stroke="black" points="90,-215.5 90,-234.5 170,-234.5 170,-215.5 90,-215.5"/>
<text text-anchor="middle" x="130" y="-222.5" font-family="Helvetica,sans-Serif" font-size="10.00">run_simulation</text>
</g>
<!-- run_simulation&#45;&gt;resultvtu -->
<g id="edge14" class="edge">
<title>run_simulation&#45;&gt;resultvtu</title>
<path fill="none" stroke="black" d="M89.87,-216.04C72.03,-209.94 55,-199.31 55,-181 55,-181 55,-181 55,-89 55,-79.62 52.32,-69.51 49.49,-61.44"/>
<polygon fill="black" stroke="black" points="51.71,-60.37 46.93,-54.7 47.13,-62.11 51.71,-60.37"/>
</g>
<!-- run_simulation&#45;&gt;plot_over_line -->
<g id="edge1" class="edge">
<title>run_simulation&#45;&gt;plot_over_line</title>
<path fill="none" stroke="black" d="M117.07,-215.16C114.61,-212.82 112.37,-210.07 111,-207 109.59,-203.85 109.11,-200.27 109.13,-196.8"/>
<polygon fill="black" stroke="black" points="111.6,-196.76 109.81,-189.56 106.72,-196.3 111.6,-196.76"/>
<text text-anchor="middle" x="121" y="-200.6" font-family="Helvetica,sans-Serif" font-size="8.00">vtkfile</text>
</g>
<!-- run_simulation&#45;&gt;plot_over_line -->
<g id="edge2" class="edge">
<title>run_simulation&#45;&gt;plot_over_line</title>
<path fill="none" stroke="black" d="M130.75,-215.46C130.87,-210.21 130.41,-203.47 128,-198 127.63,-197.17 127.2,-196.35 126.73,-195.55"/>
<polygon fill="black" stroke="black" points="128.6,-193.96 122.43,-189.85 124.69,-196.91 128.6,-193.96"/>
<text text-anchor="middle" x="141.5" y="-200.6" font-family="Helvetica,sans-Serif" font-size="8.00">pvdfile</text>
</g>
<!-- run_simulation&#45;&gt;prepare_paper_macros -->
<g id="edge9" class="edge">
<title>run_simulation&#45;&gt;prepare_paper_macros</title>
<path fill="none" stroke="black" d="M144.51,-215.2C147.85,-212.79 151.23,-210 154,-207 169.51,-190.16 182.03,-166.67 189.24,-151.4"/>
<polygon fill="black" stroke="black" points="191.65,-152.01 192.34,-144.63 187.2,-149.97 191.65,-152.01"/>
<text text-anchor="middle" x="197" y="-178.1" font-family="Helvetica,sans-Serif" font-size="8.00">num_dofs</text>
</g>
<!-- prepare_paper_macros&#45;&gt;macros -->
<g id="edge12" class="edge">
<title>prepare_paper_macros&#45;&gt;macros</title>
<path fill="none" stroke="black" d="M199.94,-125.48C201.06,-122.81 202.19,-119.82 203,-117 208.29,-98.55 211.55,-76.68 213.31,-62.14"/>
<polygon fill="black" stroke="black" points="215.78,-62.12 214.14,-54.89 210.91,-61.56 215.78,-62.12"/>
</g>
<!-- prepare_paper_macros&#45;&gt;compile_paper -->
<g id="edge5" class="edge">
<title>prepare_paper_macros&#45;&gt;compile_paper</title>
<path fill="none" stroke="black" d="M186.78,-125.21C184.19,-122.63 181.42,-119.76 179,-117 175.84,-113.41 172.61,-109.37 169.68,-105.57"/>
<polygon fill="black" stroke="black" points="171.57,-104 165.39,-99.89 167.65,-106.96 171.57,-104"/>
<text text-anchor="middle" x="192.5" y="-110.6" font-family="Helvetica,sans-Serif" font-size="8.00">macros</text>
</g>
<!-- convert_mesh&#45;&gt;run_simulation -->
<g id="edge6" class="edge">
<title>convert_mesh&#45;&gt;run_simulation</title>
<path fill="none" stroke="black" d="M131.88,-260.25C128.41,-258.08 125.32,-255.38 123,-252 120.87,-248.9 120.77,-245.18 121.64,-241.54"/>
<polygon fill="black" stroke="black" points="124,-242.22 124.21,-234.81 119.42,-240.47 124,-242.22"/>
<text text-anchor="middle" x="142.5" y="-245.6" font-family="Helvetica,sans-Serif" font-size="8.00">h5meshfile</text>
</g>
<!-- convert_mesh&#45;&gt;run_simulation -->
<g id="edge7" class="edge">
<title>convert_mesh&#45;&gt;run_simulation</title>
<path fill="none" stroke="black" d="M165.91,-260.05C164.88,-254.65 162.87,-247.89 159,-243 157.86,-241.56 156.56,-240.21 155.16,-238.97"/>
<polygon fill="black" stroke="black" points="156.44,-236.86 149.37,-234.62 153.49,-240.78 156.44,-236.86"/>
<text text-anchor="middle" x="186.5" y="-245.6" font-family="Helvetica,sans-Serif" font-size="8.00">xdmfmeshfile</text>
</g>
</g>
</svg>
